<svg width="76" height="76" viewBox="0 0 76 76" fill="none" xmlns="http://www.w3.org/2000/svg">
<g clip-path="url(#clip0_1_111)">
<path d="M73.6262 15.4755H36.4973C36.3583 14.4685 35.8554 11.0075 35.3555 9.76125C34.8181 8.42056 32.949 7.71875 31.3809 7.71875C29.8128 7.71875 27.9431 8.42056 27.4058 9.76125C26.9064 11.0075 26.4035 14.4685 26.264 15.4755H24.4144C24.1864 15.4755 23.9656 15.5082 23.7572 15.5687L23.5019 15.507C22.5732 15.2837 22.1778 16.036 21.8281 16.6998C21.6238 17.0875 21.3382 17.6486 20.9873 18.3368C18.9793 22.2751 14.2779 31.4984 11.3199 34.4642C10.8098 34.9754 9.80463 35.4035 8.64088 35.8987C5.82354 37.0981 1.96416 38.741 0.173413 43.7012C0.08435 43.947 -0.123462 44.5235 0.102756 60.819L0.118788 61.9905H11.0295C11.4541 65.5292 14.4555 68.2818 18.0892 68.2818C21.723 68.2818 24.7244 65.5292 25.1495 61.9905H52.535C52.9596 65.5292 55.961 68.2818 59.5947 68.2818C63.2285 68.2818 66.2293 65.5292 66.6544 61.9905H76V17.857C76 16.5437 74.9354 15.4755 73.6262 15.4755ZM28.5078 10.2036C28.829 9.40203 30.2486 8.90625 31.3809 8.90625C32.5132 8.90625 33.9323 9.40203 34.2535 10.2036C34.6418 11.1726 35.0948 14.025 35.2991 15.4761H33.0304C33.0719 15.2736 33.1016 15.064 33.1016 14.8438C33.1016 13.5322 32.3036 12.4688 31.3203 12.4688C30.3371 12.4688 29.5391 13.5322 29.5391 14.8438C29.5391 15.064 29.5688 15.2736 29.6109 15.4755H27.4628C27.6664 14.025 28.1188 11.172 28.5078 10.2036ZM21.09 23.3189H27.6777C28.563 23.3189 29.2832 24.0451 29.2832 24.9375V32.2483C29.2832 33.1407 28.563 33.8669 27.6777 33.8669H14.8705C16.9463 30.986 19.2607 26.8007 21.09 23.3189ZM2.37801 49.0396C2.41126 49.0337 2.44035 49.0206 2.47538 49.0206H4.84741C5.17397 49.0206 5.43938 49.2884 5.43938 49.6191V52.006C5.43938 52.3367 5.17397 52.6057 4.84741 52.6057H2.47538C2.44569 52.6057 2.42076 52.5932 2.39226 52.5884C2.38454 51.335 2.37919 50.1291 2.37801 49.0396ZM18.0892 65.9062C15.4749 65.9062 13.3475 63.7634 13.3475 61.1289C13.3475 58.4945 15.4749 56.3516 18.0892 56.3516C20.7041 56.3516 22.8309 58.4945 22.8309 61.1289C22.8309 63.7634 20.7041 65.9062 18.0892 65.9062ZM59.5947 65.9062C56.9799 65.9062 54.853 63.7634 54.853 61.1289C54.853 58.4945 56.9799 56.3516 59.5947 56.3516C62.2078 56.3516 64.3358 58.4945 64.3358 61.1289C64.3358 63.7634 62.2078 65.9062 59.5947 65.9062ZM73.625 59.6149H66.5469C65.854 56.3956 63.0011 53.9766 59.5947 53.9766C56.1878 53.9766 53.3354 56.3956 52.6419 59.6149H25.042C24.3485 56.3956 21.4962 53.9766 18.0892 53.9766C14.6823 53.9766 11.8293 56.3956 11.1358 59.6149H2.46173C2.43857 57.817 2.41719 55.7763 2.40116 53.7837C2.4261 53.7848 2.44985 53.7914 2.47538 53.7914H4.84741C5.82829 53.7914 6.62688 52.9898 6.62688 52.0048V49.6185C6.62688 48.6335 5.82829 47.8313 4.84741 47.8313H2.47538C2.44213 47.8313 2.41126 47.8402 2.3786 47.842C2.38038 47.0927 2.38513 46.4307 2.39226 45.885H73.625V59.6149ZM73.625 43.51H2.83223C4.38904 40.2972 7.12622 39.1234 9.57069 38.0843C10.9624 37.4917 12.1648 36.9799 13.0008 36.1422C13.3107 35.8316 13.6343 35.4647 13.9674 35.0544H27.6777C29.2179 35.0544 30.4707 33.7957 30.4707 32.2483V24.9375C30.4707 23.3902 29.2179 22.1314 27.6777 22.1314H21.7093C22.2348 21.1173 22.7074 20.1917 23.1028 19.4156C23.4051 18.8225 23.6972 18.2495 23.9032 17.8564H24.4156L24.4144 17.8511L73.625 17.8564V43.51Z" fill="#221F1F"/>
<path d="M46.3517 33.5587H51.0922V38.336C51.0922 38.9915 51.6242 39.5235 52.2797 39.5235H57.0226C57.6787 39.5235 58.2101 38.9915 58.2101 38.336V33.5587H62.953C63.6085 33.5587 64.1405 33.0267 64.1405 32.3712V27.5992C64.1405 26.9437 63.6085 26.4117 62.953 26.4117H58.2113V21.635C58.2113 20.9795 57.6793 20.4475 57.0238 20.4475H52.2809C51.6254 20.4475 51.0934 20.9795 51.0934 21.635V26.4117H46.3523C45.6968 26.4117 45.1648 26.9437 45.1648 27.5992V32.3712C45.1642 33.0267 45.6968 33.5587 46.3517 33.5587ZM47.538 28.7861H52.2797C52.9358 28.7861 53.4672 28.2541 53.4672 27.5986V22.8219H55.8351V27.5986C55.8351 28.2541 56.3671 28.7861 57.0226 28.7861H61.7655V31.1831H57.0238C56.3683 31.1831 55.8363 31.7151 55.8363 32.3706V37.1479H53.4684V32.3712C53.4684 31.7157 52.937 31.1837 52.2809 31.1837H47.5398V28.7861H47.538Z" fill="#221F1F"/>
<path d="M31.3203 40.3713H33.6953C34.3508 40.3713 34.8828 39.8393 34.8828 39.1838C34.8828 38.5283 34.3508 37.9963 33.6953 37.9963H31.3203C30.6648 37.9963 30.1328 38.5283 30.1328 39.1838C30.1328 39.8393 30.6648 40.3713 31.3203 40.3713Z" fill="#221F1F"/>
<path d="M18.0892 58.1494C16.454 58.1494 15.124 59.4865 15.124 61.13C15.124 62.7735 16.454 64.1107 18.0892 64.1107C19.7244 64.1107 21.0544 62.7735 21.0544 61.13C21.0544 59.4865 19.7244 58.1494 18.0892 58.1494ZM18.0892 62.9214C17.1089 62.9214 16.3109 62.1174 16.3109 61.1289C16.3109 60.1403 17.1089 59.3363 18.0892 59.3363C19.0695 59.3363 19.8669 60.1403 19.8669 61.1289C19.8669 62.1174 19.0695 62.9214 18.0892 62.9214Z" fill="#221F1F"/>
<path d="M59.5948 58.1494C57.9596 58.1494 56.6284 59.4865 56.6284 61.13C56.6284 62.7735 57.9596 64.1107 59.5948 64.1107C61.23 64.1107 62.5594 62.7735 62.5594 61.13C62.5594 59.4865 61.23 58.1494 59.5948 58.1494ZM59.5948 62.9214C58.6139 62.9214 57.8159 62.1174 57.8159 61.1289C57.8159 60.1403 58.6139 59.3363 59.5948 59.3363C60.5739 59.3363 61.3719 60.1403 61.3719 61.1289C61.3719 62.1174 60.5751 62.9214 59.5948 62.9214Z" fill="#221F1F"/>
</g>
<defs>
<clipPath id="clip0_1_111">
<rect width="76" height="76" fill="white"/>
</clipPath>
</defs>
</svg>
