<svg width="38" height="73" viewBox="0 0 38 73" fill="none" xmlns="http://www.w3.org/2000/svg">
<path d="M37.1311 1.14062C37.1311 0.511 36.6131 0 35.9749 0L13.6053 0.0342187V5.92327C13.6053 8.04426 12.1409 9.82648 10.1678 10.3329C9.76483 10.0187 9.37287 9.86127 8.99536 9.88066C8.66178 9.89948 8.32937 10.0814 8.00678 10.3637C5.97354 9.90006 4.45079 8.08703 4.45079 5.92384V4.41821V2.74092V2.1381C4.45079 1.50848 3.93279 0.997477 3.29455 0.997477C2.65631 0.997477 2.13832 1.50848 2.13832 2.1381V2.74092V4.41821V5.92327C2.13832 8.84384 3.99523 11.3355 6.5956 12.3142C5.99725 13.4577 5.52608 14.7808 5.28385 15.7748C5.20002 15.7737 5.11215 15.7686 5.02948 15.7686C2.74881 15.7686 0.131104 16.2967 0.131104 20.4126V40.4688C0.131104 44.4559 2.52161 47.8709 5.89608 49.2761C5.87758 49.3777 5.86428 49.4792 5.86428 49.5858V55.2844C5.86428 56.2271 6.64011 56.9953 7.594 56.9953H8.15767V65.9703C8.15767 66.6 8.67566 67.111 9.3139 67.111C9.95214 67.111 10.4701 66.6 10.4701 65.9703V56.9959H11.0338C11.9871 56.9959 12.7635 56.2283 12.7635 55.285V49.5864C12.7635 49.4803 12.7508 49.3788 12.7317 49.2779C16.1062 47.8709 18.4967 44.457 18.4967 40.4699V20.4126C18.4967 16.2967 15.879 15.7686 13.5983 15.7686C13.5081 15.7686 13.4122 15.7737 13.3208 15.7754C13.0196 14.7215 12.4126 13.3624 11.7119 12.2218C14.1811 11.1804 15.9166 8.74973 15.9166 5.92327V2.28125H33.6809H34.8186V3.75266V73H37.1311V3.75266V2.37592C37.1311 2.37592 37.1311 1.19766 37.1311 1.14062ZM10.4516 54.7146H8.17732V50.1578H10.4516V54.7146ZM16.1854 20.4126V40.4688C16.1854 44.449 13.1029 47.6844 9.31448 47.6844C5.7238 47.6844 2.77251 44.7747 2.47363 41.0836H5.37288C5.692 41.0836 5.951 40.8287 5.951 40.5133C5.951 40.1979 5.692 39.943 5.37288 39.943H2.44415V36.5245H4.22648C4.5456 36.5245 4.80459 36.269 4.80459 35.9542C4.80459 35.6394 4.5456 35.3839 4.22648 35.3839H2.44415V31.9654H5.37288C5.692 31.9654 5.951 31.7099 5.951 31.3951C5.951 31.0803 5.692 30.8248 5.37288 30.8248H2.44415V27.4058H4.22648C4.5456 27.4058 4.80459 27.1503 4.80459 26.8355C4.80459 26.5207 4.5456 26.2652 4.22648 26.2652H2.44415V22.8461H5.37288C5.692 22.8461 5.951 22.5906 5.951 22.2758C5.951 21.961 5.692 21.7055 5.37288 21.7055H2.44415V20.4126C2.44415 18.3755 3.0581 18.0498 5.03006 18.0498C5.58042 18.0498 6.19843 18.0846 6.85228 18.1211C7.63621 18.165 8.44672 18.2106 9.31448 18.2106C10.1822 18.2106 10.9927 18.165 11.7773 18.1211C12.4317 18.0846 13.0497 18.0498 13.5995 18.0498C15.5714 18.0498 16.1854 18.376 16.1854 20.4126ZM12.1334 15.8182C11.9709 15.8273 11.8125 15.8342 11.6454 15.8433C10.1418 15.9271 8.48661 15.9271 6.98294 15.8433C6.79794 15.833 6.62219 15.8245 6.4424 15.8153C6.69966 14.8424 7.19857 13.6088 7.71945 12.6347C8.14321 12.7163 8.57969 12.7619 9.02773 12.7619C9.56364 12.7619 10.0834 12.6946 10.584 12.5794C11.2356 13.59 11.8223 14.8606 12.1334 15.8182Z" fill="#221F1F"/>
</svg>
