<svg width="67" height="66" viewBox="0 0 67 66" fill="none" xmlns="http://www.w3.org/2000/svg">
<g clip-path="url(#clip0_1_122)">
<path d="M45.5061 33.0206V24.7778V22.7153V13.0979V12.4951V1.03125C45.5061 0.462 45.0441 0 44.4749 0H23.8499C23.2806 0 22.8186 0.462 22.8186 1.03125V12.4951V12.9551L0.138322 27.1379L0.131104 63.9375V66H66.1311V65.8278V63.9375V55.6947V53.6322V45.3879V43.3254V35.0831V33.1062V33.0206H45.5061ZM53.7561 35.0831V43.3254H45.5061V35.0831H53.7561ZM24.8811 14.5576H33.1311V22.7153H24.8811V14.5576ZM33.1311 24.7778V33.0206H24.8811V24.7778H33.1311ZM33.1311 35.0831V43.3254H24.8811V35.0831H33.1311ZM43.4436 43.3254H35.1936V35.0831H43.4436V43.3254ZM43.4436 53.6322H35.1936V45.3879H43.4436V53.6322ZM33.1311 45.3879V53.6317H24.8811V45.3879H33.1311ZM33.1311 55.6947V63.9375H24.8811V55.6947H33.1311ZM35.1936 55.6947H43.4436V63.9375H35.1936V55.6947ZM45.5061 55.6947H53.7561V63.9375H45.5061V55.6947ZM45.5061 53.6322V45.3879H53.7561V53.6317L45.5061 53.6322ZM43.4436 33.0206H35.1936V24.7778H43.4436V33.0206ZM35.1936 22.7153V14.5576H43.4436V22.7153H35.1936ZM24.8811 2.0625H43.4436V12.4951H35.1936H33.1311H24.8811V2.0625ZM2.20082 28.281L22.8186 15.3873V22.7148V24.7773V33.0206V35.0831V43.3254V45.3879V53.6317V55.6942V63.9375H17.9202V50.6272C17.9202 47.7845 15.6071 45.473 12.7639 45.473C9.92076 45.473 7.60767 47.7845 7.60767 50.6272V63.9375H2.1936L2.20082 28.281ZM15.8577 63.9375H9.67017V50.6272C9.67017 48.922 11.0577 47.5355 12.7639 47.5355C14.4701 47.5355 15.8577 48.922 15.8577 50.6272V63.9375ZM64.0686 63.9375H55.8186V55.6947H64.0686V63.9375ZM64.0686 53.6322H55.8186V45.3879H64.0686V53.6322ZM64.0686 43.3254H55.8186V35.0831H64.0686V43.3254Z" fill="#221F1F"/>
<path d="M35.1776 10.3548V8.29389H37.2401V6.23139H35.1776V4.16992H33.1151V6.23139H31.0526V8.29389H33.1151V10.3548H35.1776Z" fill="#221F1F"/>
</g>
<defs>
<clipPath id="clip0_1_122">
<rect width="66" height="66" fill="white" transform="translate(0.131104)"/>
</clipPath>
</defs>
</svg>
