<svg width="65" height="64" viewBox="0 0 65 64" fill="none" xmlns="http://www.w3.org/2000/svg">
<g clip-path="url(#clip0_1_95)">
<path d="M32.1311 19C22.7571 19 15.1311 26.626 15.1311 36C15.1311 45.374 22.7571 53 32.1311 53C41.5051 53 49.1311 45.374 49.1311 36C49.1311 26.626 41.5051 19 32.1311 19ZM32.1311 51C23.8601 51 17.1311 44.271 17.1311 36C17.1311 27.729 23.8601 21 32.1311 21C40.4021 21 47.1311 27.729 47.1311 36C47.1311 44.271 40.4021 51 32.1311 51Z" fill="#221F1F"/>
<path d="M61.1311 11H56.6311V10C56.6311 9.448 56.1831 9 55.6311 9H51.6311C51.0791 9 50.6311 9.448 50.6311 10V11H44.1311V6C44.1311 4.3455 42.7856 3 41.1311 3H23.1311C21.4766 3 20.1311 4.3455 20.1311 6V11H13.6311V10C13.6311 9.448 13.1831 9 12.6311 9H8.6311C8.0791 9 7.6311 9.448 7.6311 10V11H3.1311C1.4766 11 0.131104 12.3455 0.131104 14V58C0.131104 59.6545 1.4766 61 3.1311 61H61.1311C62.7856 61 64.1311 59.6545 64.1311 58V14C64.1311 12.3455 62.7856 11 61.1311 11ZM22.1311 6C22.1311 5.4485 22.5796 5 23.1311 5H41.1311C41.6831 5 42.1311 5.4485 42.1311 6V11H22.1311V6ZM62.1311 58C62.1311 58.552 61.6831 59 61.1311 59H3.1311C2.5796 59 2.1311 58.552 2.1311 58V14C2.1311 13.4485 2.5796 13 3.1311 13H61.1311C61.6831 13 62.1311 13.4485 62.1311 14V58Z" fill="#221F1F"/>
<path d="M39.1311 33H35.1311V29C35.1311 28.448 34.6831 28 34.1311 28H30.1311C29.5791 28 29.1311 28.448 29.1311 29V33H25.1311C24.5791 33 24.1311 33.448 24.1311 34V38C24.1311 38.552 24.5791 39 25.1311 39H29.1311V43C29.1311 43.552 29.5791 44 30.1311 44H34.1311C34.6831 44 35.1311 43.552 35.1311 43V39H39.1311C39.6831 39 40.1311 38.552 40.1311 38V34C40.1311 33.448 39.6831 33 39.1311 33ZM38.1311 37H34.1311C33.5791 37 33.1311 37.448 33.1311 38V42H31.1311V38C31.1311 37.448 30.6831 37 30.1311 37H26.1311V35H30.1311C30.6831 35 31.1311 34.552 31.1311 34V30.0005H33.1311V34C33.1311 34.552 33.5791 35 34.1311 35H38.1311V37Z" fill="#221F1F"/>
</g>
<defs>
<clipPath id="clip0_1_95">
<rect width="64" height="64" fill="white" transform="translate(0.131104)"/>
</clipPath>
</defs>
</svg>
