<svg width="73" height="72" viewBox="0 0 73 72" fill="none" xmlns="http://www.w3.org/2000/svg">
<g clip-path="url(#clip0_1_104)">
<path d="M18.0982 2.25C19.0927 2.25 19.8999 3.20906 19.8999 4.392V10.5491V19.9643C19.8999 20.5554 20.3038 21.0347 20.8011 21.0347C21.2983 21.0347 21.7022 20.5549 21.7022 19.9643V10.5491V9.21094V6.53344C21.7022 5.3505 22.5088 4.392 23.5027 4.392C24.4984 4.392 25.3039 5.35106 25.3039 6.53344V9.21094V10.5491V19.9643C25.3039 20.5554 25.7077 21.0347 26.205 21.0347C26.7022 21.0347 27.1056 20.5549 27.1056 19.9643V10.5491H27.1286C27.24 9.49444 27.9892 8.67487 28.9072 8.67487C29.9023 8.67487 30.7084 9.63394 30.7084 10.8169C30.7084 22.7751 30.8197 34.7327 30.8197 46.6909C30.8197 46.8433 30.8079 46.9918 30.7905 47.1392H30.8197C30.8197 47.1392 30.5902 49.086 30.3017 49.9033C29.1429 53.1951 30.6459 61.8829 31.5049 66.1731C32.9893 66.5488 33.882 67.0224 33.882 67.5377C33.882 68.76 28.9039 69.7511 22.7631 69.7511C16.6222 69.7511 11.6441 68.76 11.6441 67.5377C11.6441 67.0421 12.471 66.5871 13.8514 66.2175C14.1191 62.0016 14.451 53.4088 13.0397 49.6631C11.553 45.7194 10.3993 44.0736 9.5055 42.2218C7.47093 38.0042 2.63287 24.5756 2.63287 24.5756C2.00568 22.9663 2.59518 21.0566 3.94912 20.3108C4.31643 20.1083 4.70231 20.0126 5.08256 20.0126C6.10237 20.0126 7.07943 20.7028 7.53618 21.8756L10.8937 30.4971V6.53344C10.8937 5.3505 11.7009 4.392 12.6954 4.392C13.6905 4.392 14.4971 5.35106 14.4971 6.53344V10.5491V19.9643C14.4971 20.5554 14.8999 21.0347 15.3977 21.0347C15.8949 21.0347 16.2982 20.5549 16.2982 19.9643V10.5491V9.21094V4.392C16.2971 3.20906 17.1032 2.25 18.0982 2.25ZM30.8197 47.1392H30.822ZM18.0982 0C16.4676 0 15.0591 1.04962 14.4172 2.55881C13.8941 2.29162 13.3102 2.142 12.6943 2.142C10.4601 2.142 8.64262 4.11187 8.64262 6.53344V19.4214C7.72743 18.3797 6.45168 17.7632 5.08143 17.7632C4.31587 17.7632 3.54862 17.9623 2.86293 18.3403C0.528559 19.6256 -0.495191 22.7053 0.523496 25.3626C0.822184 26.1911 5.44031 38.9756 7.47768 43.1994C7.7595 43.7844 8.05706 44.3346 8.3715 44.9167C9.10275 46.269 9.93187 47.8029 10.9331 50.4585C11.7639 52.6624 12.0384 57.8818 11.6908 64.5823C10.5816 65.0846 9.393 65.9689 9.393 67.5377C9.393 70.3007 13.0746 71.0342 14.4606 71.3093C16.701 71.7553 19.6491 72.0006 22.7619 72.0006C25.8748 72.0006 28.8229 71.7548 31.0633 71.3093C32.4493 71.0342 36.1309 70.3007 36.1309 67.5377C36.1309 65.8136 34.6875 64.9063 33.4551 64.4254C31.9431 56.4514 31.9166 52.0909 32.4234 50.652C32.7497 49.7267 32.9691 48.1011 33.0427 47.4958C33.0607 47.3805 33.0709 47.2618 33.0709 47.1409C33.0709 47.0784 33.0681 47.0149 33.063 46.953C33.0669 46.8653 33.0692 46.7781 33.0692 46.6926C33.0692 40.7081 33.0405 34.6264 33.0129 28.7449C32.9859 22.8684 32.9572 16.7923 32.9572 10.8186C32.9572 8.397 31.1404 6.42656 28.9061 6.42656C28.4331 6.42656 27.9774 6.51488 27.5533 6.67856V6.53513C27.5533 4.11356 25.7364 2.14369 23.5022 2.14369C22.8868 2.14369 22.3029 2.29331 21.7798 2.5605C21.138 1.05019 19.7289 0 18.0982 0Z" fill="#221F1F"/>
<path d="M54.1643 2.25C55.1594 2.25 55.9649 3.20906 55.9649 4.392V9.21094V10.5491V19.9643C55.9649 20.5554 56.3682 21.0347 56.866 21.0347C57.3638 21.0347 57.7665 20.5549 57.7665 19.9643L57.7671 10.5491V6.53344C57.7671 5.3505 58.5749 4.392 59.5682 4.392C60.5633 4.392 61.3699 5.35106 61.3699 6.53344V30.4971L64.7275 21.8756C65.1848 20.7028 66.1619 20.0126 67.1805 20.0126C67.5608 20.0126 67.9467 20.1083 68.3145 20.3108C69.669 21.0566 70.258 22.9663 69.6314 24.5756C69.6314 24.5756 64.7922 38.0042 62.7582 42.2218C61.8644 44.0752 60.7101 45.7206 59.2251 49.6631C57.8127 53.4077 58.1445 62.0016 58.4134 66.2181C59.7932 66.5859 60.6207 67.0421 60.6207 67.5377C60.6207 68.76 55.6425 69.7511 49.5012 69.7511C43.3609 69.7511 38.3817 68.7594 38.3817 67.5366C38.3817 67.0213 39.2744 66.5488 40.7594 66.1731C41.6172 61.8829 43.1202 53.1939 41.9625 49.9028C41.6734 49.086 41.4439 47.1386 41.4439 47.1386H41.4737C41.4563 46.9913 41.4439 46.8439 41.4439 46.6903C41.4439 34.7321 41.5559 22.7745 41.5559 10.8163C41.5559 9.63338 42.3625 8.67431 43.3564 8.67431C44.275 8.67431 45.0242 9.49331 45.135 10.5486H45.1581V19.9637C45.1581 20.5549 45.5614 21.0341 46.0592 21.0341C46.5565 21.0341 46.9604 20.5543 46.9604 19.9637V10.5491V9.21094V6.53344C46.9604 5.3505 47.767 4.392 48.7615 4.392C49.756 4.392 50.5615 5.35106 50.5615 6.53344V9.21094V10.5491V19.9643C50.5615 20.5554 50.9659 21.0347 51.4632 21.0347C51.9604 21.0347 52.3649 20.5549 52.3649 19.9643V10.5491V4.392C52.362 3.20906 53.1692 2.25 54.1643 2.25ZM41.44 47.1392H41.4434ZM54.1643 0C52.5342 0 51.1245 1.05019 50.4827 2.55881C49.959 2.29162 49.3752 2.142 48.7598 2.142C46.525 2.142 44.7087 4.11187 44.7087 6.53344V6.67687C44.2845 6.51319 43.8295 6.42487 43.3559 6.42487C41.1216 6.42487 39.3053 8.39475 39.3053 10.8169C39.3053 16.7906 39.276 22.8667 39.249 28.7432C39.2215 34.6247 39.1928 40.7064 39.1928 46.6909C39.1928 46.7764 39.195 46.8636 39.199 46.9513C39.1939 47.0132 39.1905 47.0768 39.1905 47.1392C39.1905 47.2601 39.2012 47.3788 39.2192 47.4941C39.2929 48.0994 39.5123 49.7256 39.8385 50.6503C40.3454 52.0897 40.3189 56.4502 38.8069 64.4237C37.575 64.9046 36.1311 65.8119 36.1311 67.536C36.1311 70.299 39.8127 71.0319 41.1987 71.3076C43.4385 71.7536 46.3872 71.9989 49.5006 71.9989C52.6129 71.9989 55.5604 71.7531 57.802 71.3076C59.1874 71.0319 62.8695 70.299 62.8695 67.536C62.8695 65.9672 61.681 65.0829 60.5712 64.5806C60.2241 57.8801 60.498 52.6607 61.3294 50.4568C62.3301 47.8012 63.1598 46.2684 63.891 44.9151C64.2066 44.3329 64.503 43.7827 64.7854 43.1977C66.8234 38.9739 71.4409 26.1894 71.7396 25.3609C72.7589 22.7036 71.734 19.6239 69.4007 18.3386C68.7139 17.9612 67.9472 17.7615 67.1817 17.7615C65.8114 17.7615 64.5362 18.3786 63.621 19.4197V6.53288C63.621 4.11131 61.8042 2.14144 59.5694 2.14144C58.954 2.14144 58.3701 2.29106 57.8464 2.55825C57.2029 1.04962 55.7944 0 54.1643 0Z" fill="#221F1F"/>
</g>
<defs>
<clipPath id="clip0_1_104">
<rect width="72" height="72" fill="white" transform="translate(0.131104)"/>
</clipPath>
</defs>
</svg>
