<svg width="78" height="118" viewBox="0 0 78 118" fill="none" xmlns="http://www.w3.org/2000/svg">
<path d="M-3.72348 57.5525C0.106189 64.1964 -0.766176 71.8761 -5.67504 74.7076C-10.5821 77.5382 -17.6659 74.4471 -21.4964 67.8013C-25.3261 61.1573 -24.4542 53.4767 -19.5453 50.6453C-14.6369 47.8152 -7.55269 50.9072 -3.72348 57.5525ZM17.3929 11.9991C11.8426 13.143 8.60378 20.1586 10.1595 27.6672C11.7089 35.1788 17.4667 40.3391 23.0169 39.1952C28.5658 38.0508 31.8082 31.0357 30.253 23.5258C28.2297 13.7523 18.7214 11.7238 17.3929 11.9991ZM39.9336 28.8872C34.7789 31.4924 33.0619 38.4378 36.9007 46.0327C40.7391 53.6267 46.7321 55.0233 51.8922 52.4154C57.0442 49.8115 59.4091 44.1924 55.5712 36.5948C50.5727 26.7116 41.1683 28.2639 39.9336 28.8872ZM-9.47722 22.9966C-14.4187 25.4023 -15.7278 32.8909 -12.4028 39.7205C-9.07777 46.5501 -2.37714 50.1358 2.56434 47.7301C7.50583 45.3243 8.81713 37.838 5.49211 31.0084C2.1671 24.1787 -4.53574 20.5908 -9.47722 22.9966ZM8.07902 61.9632C7.22042 67.4529 5.93198 73.0306 2.20279 81.3326C-1.52731 89.6351 -2.42995 94.5523 0.168864 99.8903C2.76724 105.227 10.129 112.609 18.791 108.392C27.453 104.174 30.7126 100.228 37.5665 96.8916C44.4203 93.5548 50.291 93.9988 58.9512 89.7826C67.6141 85.5651 67.2404 75.6069 64.642 70.2698C62.0432 64.9318 59.0691 62.6427 49.1633 59.9301C42.8148 58.1872 37.4957 56.8407 27.6032 51.5168C22.7123 48.8841 19.094 50.0006 15.5722 51.7152C12.0499 53.4289 8.94074 56.4753 8.07902 61.9632Z" fill="black"/>
</svg>
