<svg width="95" height="96" viewBox="0 0 95 96" fill="none" xmlns="http://www.w3.org/2000/svg">
<path d="M11.4626 70.6006C9.43572 69.645 8.36164 67.3739 8.89911 65.1974C9.29828 63.5733 10.5481 62.2756 12.163 61.8017C12.2094 61.7896 12.2503 61.775 12.2937 61.7547C12.3294 61.7512 12.3732 61.7446 12.3977 61.7358C12.4388 61.7349 12.4251 61.7352 12.4634 61.7261C12.6464 61.6834 12.8353 61.6571 13.0271 61.6389C13.0627 61.6354 13.1065 61.6289 13.1447 61.6197C15.1991 61.1494 17.2336 59.699 18.7458 57.6291C18.786 57.5869 18.8207 57.5422 18.8553 57.4975C19.9568 55.838 21.9927 55.0467 23.918 55.5268C24.2219 55.6022 24.5237 55.7105 24.8014 55.8415C26.3674 56.5798 27.3998 58.1186 27.4976 59.8548C27.4982 59.8822 27.5014 59.9041 27.5047 59.926C27.9048 62.8636 29.063 64.9708 30.9505 66.1932C30.9616 66.1985 30.9671 66.2011 30.9671 66.2011C30.9952 66.2279 31.0233 66.2547 31.054 66.276C32.4867 67.4266 33.1235 69.3151 32.6867 71.0911C32.0584 73.6185 29.4961 75.1662 26.9661 74.5435C26.6374 74.4632 26.3134 74.3443 25.9857 74.1899C25.0028 73.7265 24.1511 72.9991 23.322 72.296C22.5461 71.6383 21.8093 71.0127 21.0041 70.633C20.7487 70.5126 20.4994 70.4222 20.2508 70.3593C19.1129 70.0807 17.8063 70.3471 16.4232 70.6317C15.6496 70.7896 14.8516 70.9563 14.0869 71.0234C13.4761 71.0952 12.9095 71.0588 12.3626 70.9232C12.0421 70.8399 11.7458 70.7342 11.4626 70.6006ZM10.1863 57.9036C8.81466 57.2569 7.96383 54.901 8.21983 52.4288C8.51306 49.5466 10.1737 47.2481 11.8391 47.4156C12.0345 47.4331 12.2253 47.4891 12.4085 47.5755C13.7802 48.2221 14.6254 50.5755 14.375 53.0502C14.0791 55.938 12.4267 58.2336 10.7557 58.0634C10.5548 58.0434 10.3695 57.99 10.1863 57.9036ZM35.5012 64.1712C34.0296 63.4774 33.6741 60.6899 34.7236 58.0896C35.8094 55.3978 38.0405 53.6601 39.5984 54.286L39.6817 54.3252C41.1533 55.019 41.5088 57.8066 40.4593 60.4069C39.3735 63.0987 37.1424 64.8364 35.5845 64.2105L35.5012 64.1712ZM18.9278 50.7645C17.5562 50.1178 16.7054 47.7619 16.9614 45.2898C17.2546 42.4076 18.9097 40.1064 20.5807 40.2765C20.7761 40.294 20.9669 40.35 21.1501 40.4364C22.5217 41.0831 23.367 43.4364 23.1166 45.9111C22.8233 48.7933 21.1682 51.0945 19.4973 50.9244C19.3019 50.9069 19.1111 50.8509 18.9278 50.7645ZM29.6366 53.4174C28.1651 52.7236 27.8096 49.936 28.8591 47.3357C29.9449 44.644 32.176 42.9062 33.7339 43.5321L33.8172 43.5714C35.2888 44.2652 35.6442 47.0528 34.5948 49.6531C33.5089 52.3448 31.2778 54.0826 29.7199 53.4567L29.6366 53.4174Z" fill="#010002"/>
<path d="M33.4245 44.4044C34.213 44.7762 34.7255 46.8708 33.7408 49.3048C32.7277 51.8136 30.8888 52.9354 30.0682 52.6028L30.0293 52.5845C29.2408 52.2127 28.7283 50.1181 29.7156 47.6785C30.7287 45.1697 32.565 44.0535 33.3882 44.3805L33.4245 44.4044ZM20.7548 41.275C21.6322 41.6886 22.433 43.5459 22.2 45.8252C21.9298 48.5147 20.4752 50.1027 19.5943 50.0132C19.5035 50.0043 19.4149 49.9761 19.3261 49.9342C18.4487 49.5205 17.6478 47.6633 17.8808 45.3839C18.151 42.6945 19.6056 41.1065 20.4865 41.196C20.5774 41.2049 20.6604 41.2305 20.7548 41.275ZM39.289 55.1582C40.0775 55.53 40.59 57.6246 39.6028 60.0642C38.5896 62.573 36.7534 63.6892 35.9328 63.3567L35.8939 63.3383C35.1053 62.9666 34.5929 60.8719 35.5801 58.4324C36.5933 55.9235 38.4295 54.8073 39.2528 55.1344L39.289 55.1582ZM12.0076 48.4114C12.885 48.8251 13.6859 50.6824 13.4529 52.9617C13.1827 55.6511 11.7225 57.2365 10.8472 57.1496C10.7564 57.1407 10.6678 57.1126 10.579 57.0707C9.70159 56.657 8.90072 54.7997 9.13372 52.5204C9.40393 49.831 10.8641 48.2456 11.7394 48.3325C11.8303 48.3414 11.9188 48.3695 12.0076 48.4114ZM24.4057 56.6663C25.6663 57.2606 26.5022 58.4964 26.5757 59.8953C26.5829 59.9666 26.59 60.0378 26.5971 60.1091C27.143 64.0045 28.9374 65.9569 30.385 66.9177C30.4131 66.9445 30.4382 66.9631 30.4663 66.9899C31.6191 67.9136 32.1376 69.434 31.7833 70.8621C31.2783 72.8978 29.2116 74.1429 27.1814 73.6405C26.9135 73.5753 26.6476 73.4771 26.3699 73.3462C25.4981 72.9351 24.6885 72.248 23.9097 71.5821C23.1197 70.911 22.3046 70.2213 21.3884 69.7893C21.0829 69.6453 20.77 69.5317 20.4661 69.4563C19.1237 69.1221 17.656 69.4278 16.2347 69.7216C15.4885 69.8788 14.715 70.0368 14.0104 70.0915C13.9885 70.0947 13.9611 70.0954 13.9392 70.0986C13.4791 70.1532 13.017 70.1254 12.5779 70.0202C12.3293 69.9573 12.0912 69.8721 11.8635 69.7648C10.2364 68.9977 9.36756 67.1695 9.80212 65.4128C10.1262 64.1063 11.1347 63.0613 12.4277 62.6799C12.4659 62.6708 12.5068 62.6562 12.5421 62.6389C12.5859 62.6324 12.6297 62.6259 12.6679 62.6167C12.8127 62.5832 12.966 62.5604 13.1222 62.5458C13.199 62.5413 13.2754 62.5231 13.3493 62.5104C15.6004 61.997 17.8108 60.4327 19.4485 58.2116C19.5074 58.1443 19.5689 58.0715 19.6193 57.9934C20.5058 56.6602 22.1443 56.0209 23.6939 56.4054C23.9399 56.4738 24.178 56.559 24.4057 56.6663ZM34.2099 42.7385C34.1655 42.7175 34.1211 42.6966 34.074 42.6812C32.0225 41.8497 29.2988 43.7829 28.0025 46.9931C26.7347 50.1284 27.2921 53.337 29.2357 54.2534C29.2802 54.2743 29.3246 54.2953 29.3716 54.3106C31.4231 55.1421 34.1468 53.209 35.4431 49.9988C36.7135 46.8579 36.1591 43.6574 34.2099 42.7385ZM21.5402 39.609C21.2681 39.4808 20.975 39.3969 20.6722 39.3627C18.4699 39.1389 16.3963 41.7519 16.0475 45.1983C15.7454 48.1713 16.8247 50.7911 18.5407 51.6001C18.8128 51.7284 19.1058 51.8123 19.4087 51.8465C21.6109 52.0703 23.6845 49.4573 24.0334 46.0109C24.3299 43.0352 23.2561 40.418 21.5402 39.609ZM40.0744 53.4923C40.03 53.4714 39.9856 53.4504 39.9386 53.435C37.8871 52.6036 35.1634 54.5367 33.8671 57.7469C32.5966 60.8878 33.1567 64.0909 35.1058 65.0098C35.1503 65.0308 35.1947 65.0517 35.2417 65.0671C37.2958 65.893 40.0169 63.9654 41.3132 60.7552C42.5781 57.6117 42.0236 54.4113 40.0744 53.4923ZM12.7931 46.7455C12.521 46.6172 12.2279 46.5333 11.925 46.4991C9.72281 46.2753 7.64923 48.8883 7.30037 52.3348C6.99825 55.3078 8.07763 57.9276 9.79355 58.7366C10.0656 58.8649 10.3587 58.9488 10.6616 58.983C12.8694 59.2094 14.9374 56.5938 15.2918 53.1499C15.5884 50.1743 14.509 47.5545 12.7931 46.7455ZM25.1911 55.0004C24.858 54.8433 24.5035 54.7169 24.1334 54.6238C21.7579 54.0333 19.3646 55.0498 18.08 56.9826L18.0688 56.9774C16.5845 59.0604 14.6638 60.3269 12.9317 60.7184C12.7042 60.7401 12.4771 60.7756 12.2558 60.8274C12.2284 60.828 12.2039 60.8368 12.1764 60.8375C12.0477 60.8514 11.9549 60.8755 11.8954 60.9154C10.0295 61.461 8.49847 62.9519 8.00131 64.971C7.34586 67.6281 8.68203 70.3079 11.0643 71.4311C11.3975 71.5881 11.752 71.7145 12.1221 71.8076C12.8017 71.9787 13.4862 72.0095 14.1434 71.9257C16.276 71.7501 18.4937 70.8613 20.0129 71.2382C20.2063 71.2886 20.3974 71.3584 20.5918 71.45C22.1023 72.1622 23.5354 74.046 25.5734 75.0069C25.9399 75.1797 26.3221 75.3191 26.7282 75.4224C29.7555 76.1709 32.8108 74.3262 33.5648 71.3016C34.1072 69.1002 33.2733 66.8812 31.6139 65.5491C31.5774 65.5115 31.5297 65.4686 31.4739 65.4287C31.4683 65.4261 31.4683 65.4261 31.4627 65.4235C29.9045 64.4241 28.786 62.6071 28.4024 59.7927C28.3029 57.7435 27.0737 55.8879 25.1911 55.0004Z" fill="#010002"/>
<path d="M65.7323 58.917C65.4158 58.7678 65.1094 58.5826 64.8272 58.3749C64.3158 57.9913 63.8766 57.5263 63.5316 56.9768C63.026 56.2497 62.6037 55.4465 62.1932 54.676C61.4694 53.3031 60.7887 52.0115 59.7662 51.2579C59.5454 51.0928 59.2949 50.9475 59.0228 50.8192C58.1398 50.4029 57.1002 50.2182 55.9998 50.0184C54.8167 49.8068 53.5896 49.5879 52.49 49.0696C52.118 48.8941 51.7894 48.6985 51.4821 48.4722C49.1293 46.7249 48.6376 43.3912 50.3849 41.0384C51.6128 39.3842 53.7119 38.5888 55.7264 39.0091C55.7705 39.0164 55.8091 39.021 55.8532 39.0282C58.1995 39.7814 60.7891 39.2987 63.5616 37.5787C63.5806 37.5672 63.6022 37.5503 63.6211 37.5388C65.1927 36.3793 67.2642 36.1749 69.0301 37.0075C69.3467 37.1567 69.653 37.3419 69.9352 37.5496C71.7292 38.8841 72.497 41.2145 71.8462 43.3579C71.8311 43.4187 71.816 43.4795 71.8091 43.5373C71.1141 46.264 71.3007 48.9923 72.3341 51.0474C72.3514 51.0827 72.3713 51.1125 72.3941 51.1504C72.5191 51.3315 72.6278 51.5185 72.7172 51.7032C72.7316 51.7303 72.8145 51.8712 72.82 51.8738C72.8295 51.9258 72.8471 51.9748 72.8673 52.0183C73.6104 53.7533 73.374 55.7663 72.2554 57.2752C70.7505 59.301 68.0091 59.9905 65.7323 58.917ZM77.4486 51.0831C77.2376 50.9836 77.0478 50.8535 76.8849 50.6952C75.533 49.3587 76.3241 46.27 78.6105 43.9543C80.6045 41.9419 83.1896 41.0226 84.7667 41.7661C84.9777 41.8656 85.1674 41.9958 85.3304 42.1541C86.6822 43.4905 85.8912 46.5792 83.6048 48.895C81.6189 50.9045 79.0312 51.8293 77.4486 51.0831ZM55.8613 39.0253C55.8724 39.0305 55.8862 39.0302 55.8973 39.0354L55.8502 39.02C55.8558 39.0226 55.8558 39.0226 55.8613 39.0253ZM54.2237 33.8752C52.5549 32.9663 52.4484 29.7802 54 26.9212C55.5251 24.1039 58.1512 22.4641 59.8504 23.2653C59.8838 23.281 59.9171 23.2967 59.9504 23.3124C61.6247 24.224 61.7257 27.4074 60.1741 30.2665C58.6435 33.0811 56.0174 34.7209 54.3237 33.9224C54.3237 33.9224 54.257 33.8909 54.2237 33.8752ZM77.386 38.6189C77.175 38.5195 76.9852 38.3893 76.8223 38.231C75.4704 36.8945 76.2615 33.8059 78.5479 31.4901C80.542 29.4777 83.127 28.5584 84.7041 29.3019C84.9151 29.4014 85.1049 29.5316 85.2678 29.6899C86.6197 31.0263 85.8286 34.115 83.5422 36.4308C81.5563 38.4403 78.9631 39.3625 77.386 38.6189ZM67.5089 31.3083C65.8346 30.3967 65.7336 27.2133 67.2852 24.3542C68.8103 21.537 71.4364 19.8972 73.1356 20.6983C73.169 20.714 73.2023 20.7298 73.2356 20.7455C74.9099 21.657 75.0109 24.8405 73.4593 27.6995C71.9287 30.5142 69.3081 32.1565 67.6089 31.3554C67.6063 31.361 67.5396 31.3295 67.5089 31.3083Z" fill="#010002"/>
<path d="M72.7458 21.5396C72.7625 21.5475 72.7792 21.5553 72.8014 21.5658C73.8776 22.1479 74.0385 24.7147 72.6558 27.2733C71.307 29.7597 69.0874 31.0413 68.0045 30.5307C67.9879 30.5229 67.9712 30.515 67.949 30.5045C66.8727 29.9224 66.7118 27.3556 68.0946 24.797C69.4433 22.3107 71.663 21.0291 72.7458 21.5396ZM84.3196 30.1321C84.4362 30.1871 84.5394 30.2561 84.6266 30.3447C85.4978 31.2034 84.9404 33.71 82.8927 35.7785C81.0275 37.6617 78.8283 38.2809 77.7787 37.7861C77.6621 37.7311 77.5589 37.6621 77.4717 37.5735C76.6005 36.7148 77.1605 34.2027 79.2055 32.1396C81.0734 30.251 83.27 29.6373 84.3196 30.1321ZM59.4577 24.0984C59.4744 24.1062 59.491 24.1141 59.5132 24.1246C60.5895 24.7067 60.7504 27.2735 59.3676 29.8321C58.0189 32.3184 55.7992 33.6 54.7164 33.0895C54.6997 33.0817 54.6831 33.0738 54.6664 33.0659C53.5901 32.4838 53.4293 29.917 54.812 27.3584C56.1607 24.8721 58.3749 23.5878 59.4577 24.0984ZM84.3821 42.5963C84.4987 42.6513 84.6019 42.7203 84.6891 42.8089C85.5603 43.6676 85.0004 46.1797 82.9553 48.2427C81.0901 50.1258 78.8908 50.7451 77.8413 50.2503C77.7247 50.1953 77.6215 50.1263 77.5343 50.0377C76.6631 49.1789 77.223 46.6668 79.2681 44.6038C81.1333 42.7207 83.3326 42.1014 84.3821 42.5963ZM68.6319 37.838C68.8929 37.961 69.1463 38.1145 69.3838 38.2875C70.8675 39.3875 71.4997 41.3145 70.9638 43.0846C70.9356 43.1731 70.9186 43.2669 70.9015 43.3606C70.1697 46.2804 70.3859 49.2195 71.5113 51.4538C71.5459 51.5244 71.5831 51.5894 71.6285 51.6515C71.728 51.8003 71.8194 51.952 71.8944 52.1095C71.9173 52.1474 71.932 52.1883 71.9548 52.2262C71.9577 52.2344 71.9633 52.237 71.9662 52.2452C71.9783 52.2916 71.9985 52.3351 72.0187 52.3785C72.6314 53.8145 72.4364 55.4805 71.515 56.7294C70.2711 58.4032 68.0049 58.9773 66.1224 58.0897C65.8614 57.9667 65.6079 57.8133 65.3705 57.6402C64.9485 57.3259 64.5881 56.9387 64.3002 56.484C64.2888 56.465 64.2773 56.4461 64.2604 56.4245C63.8086 55.7703 63.3981 54.9998 62.999 54.2483C62.2237 52.7832 61.4969 51.4021 60.3065 50.515C60.041 50.3152 59.7376 50.1382 59.4099 49.9837C58.4159 49.5151 57.3211 49.3179 56.1547 49.1141C55.0268 48.915 53.863 48.7057 52.8746 48.2396C52.5581 48.0904 52.2768 47.9239 52.0198 47.7348C50.075 46.2885 49.6682 43.5378 51.109 41.5903C52.121 40.2212 53.8553 39.566 55.5303 39.9146C55.5744 39.9218 55.6104 39.932 55.6489 39.9366C57.4497 40.4937 60.3287 40.6497 63.9924 38.3927C64.0493 38.3585 64.1006 38.3216 64.1519 38.2847C65.4616 37.3207 67.1769 37.152 68.6319 37.838ZM73.5313 19.8737C71.3822 18.8604 68.2594 20.6325 66.4787 23.9198C64.6559 27.2822 64.9192 30.9562 67.0718 32.1204C67.1191 32.1495 67.1691 32.1731 67.2191 32.1967C69.3681 33.2099 72.491 31.4378 74.2716 28.1505C76.0945 24.7881 75.8311 21.1141 73.6786 19.9499C73.6257 19.9182 73.5813 19.8972 73.5313 19.8737ZM85.105 28.4661C83.2114 27.5734 80.2172 28.4966 77.8984 30.8378C75.2095 33.5611 74.4383 37.1547 76.1781 38.8776C76.4197 39.1137 76.6905 39.3025 76.9959 39.4465C78.8895 40.3393 81.8837 39.416 84.2051 37.0692C86.8914 34.3515 87.6652 30.7524 85.9254 29.0294C85.6812 28.7989 85.4049 28.6075 85.105 28.4661ZM60.2431 22.4324C58.0941 21.4192 54.9712 23.1913 53.1906 26.4786C51.3677 29.841 51.6311 33.515 53.7836 34.6792C53.8336 34.7028 53.881 34.7319 53.9254 34.7528C56.0745 35.766 59.1973 33.994 60.978 30.7067C62.8008 27.3443 62.5375 23.6703 60.3849 22.5061C60.3431 22.4796 60.2931 22.456 60.2431 22.4324ZM85.1676 40.9303C83.2739 40.0376 80.2798 40.9608 77.9584 43.3076C75.2694 46.0309 74.4983 49.6244 76.238 51.3474C76.4797 51.5835 76.7504 51.7722 77.0558 51.9162C78.9495 52.809 81.9436 51.8858 84.265 49.539C86.9595 46.8183 87.7251 43.2222 85.9854 41.4992C85.7437 41.2631 85.473 41.0743 85.1676 40.9303ZM69.4173 36.172C67.3404 35.1929 64.8911 35.4499 63.0685 36.7965C60.4015 38.4509 58.0691 38.7767 56.1185 38.1488C56.1129 38.1462 56.1129 38.1462 56.1048 38.1492C56.0273 38.1262 55.9584 38.1141 55.9061 38.1098C53.6047 37.6356 51.1305 38.4782 49.6364 40.4956C47.5856 43.2618 48.1618 47.1648 50.928 49.2156C51.2996 49.4926 51.6893 49.7171 52.0947 49.9082C54.3437 50.9685 56.9641 50.8668 58.6301 51.6523C58.8411 51.7518 59.0387 51.8653 59.2147 51.9958C60.6034 53.0238 61.4002 55.5376 62.7522 57.4782C63.1482 58.0925 63.6556 58.6575 64.2731 59.1184C64.6085 59.3715 64.9704 59.5829 65.3369 59.7557C67.9691 60.9967 71.1955 60.2576 72.9931 57.8268C74.3649 55.9825 74.5578 53.6299 73.7103 51.6557C73.7028 51.5707 73.6594 51.4756 73.5798 51.3566C73.5628 51.335 73.5511 51.3023 73.5341 51.2807C73.4218 51.0581 73.2933 50.8414 73.1539 50.6331C72.2703 48.8794 72.0005 46.3562 72.7312 43.626L72.7201 43.6208C73.46 41.1732 72.6467 38.4209 70.4756 36.8067C70.1457 36.5562 69.7894 36.3475 69.4173 36.172Z" fill="#010002"/>
</svg>
