<svg width="61" height="64" viewBox="0 0 61 64" fill="none" xmlns="http://www.w3.org/2000/svg">
<path d="M55.7373 39.6975C53.7268 36.6125 46.3398 32.2075 42.0933 29.8435C41.6038 28.778 40.9353 27.792 40.0828 26.938C40.0213 26.8765 39.9518 26.828 39.8808 26.786L39.8913 26.699C40.3843 25.9355 40.6238 25.1345 40.7378 24.4995C41.5678 24.3895 42.5378 23.881 42.8678 23.1645C43.1073 22.6445 43.3583 22.0475 43.5983 21.476C43.8513 20.874 44.0898 20.3055 44.2813 19.911C45.0583 18.3085 45.1923 16.9605 44.6813 15.904C44.4158 15.3565 44.0293 14.9975 43.6743 14.7665C43.8938 12.535 43.2698 10.175 43.1113 9.6225C42.8148 5.68 40.7258 2.5555 38.1168 2.1725L37.9753 2.15C36.4893 1.8915 35.7458 1.132 35.7223 1.108C35.6483 1.0265 35.5603 0.9585 35.4633 0.906C34.3598 0.3045 33.1663 0 31.9173 0C29.4608 0 27.6253 1.1905 27.5848 1.218C20.9958 5.1605 20.8293 11.6545 20.9778 13.833C19.5668 14.9635 19.8023 17.6595 19.8393 18.0075C19.8418 18.034 19.8458 18.0605 19.8508 18.087C20.0868 19.3425 20.7778 23.017 22.8403 23.433C22.8548 24.9245 23.2313 25.7685 23.5718 26.227V26.332C21.2538 26.7765 19.5913 28.0765 18.7163 30.064C13.4493 32.546 5.99225 36.462 3.83125 39.6375C0.456745 44.5965 0.142744 62.236 0.131244 62.984C0.126744 63.252 0.230244 63.5105 0.418245 63.702C0.606245 63.893 0.863245 64 1.13125 64H59.1313C59.4068 64 59.6703 63.8855 59.8593 63.6855C60.0483 63.485 60.1458 63.216 60.1293 62.9405C60.0848 62.198 59.0033 44.7095 55.7373 39.6975ZM42.0078 53.509C43.1108 53.509 44.0053 52.6135 44.0053 51.509C44.0053 50.7555 43.5843 50.1075 42.9698 49.767C42.9918 49.6845 43.0073 49.599 43.0073 49.509V48.1565C44.4488 48.5885 45.5033 49.927 45.5033 51.509C45.5033 53.4385 43.9348 55.009 42.0078 55.009C40.0808 55.009 38.5123 53.4385 38.5123 51.509C38.5123 49.928 39.5658 48.589 41.0073 48.1575V49.509C41.0073 49.5995 41.0228 49.6845 41.0448 49.7675C40.4303 50.1085 40.0098 50.757 40.0098 51.509C40.0098 52.6135 40.9043 53.509 42.0078 53.509ZM2.15375 62C2.30875 56.4295 3.11775 44.241 5.48475 40.7625C7.12725 38.349 12.9508 35.0915 18.0733 32.5925C18.0333 32.9725 18.0068 33.363 18.0068 33.772V35.168C13.9318 36.4215 10.8528 44.97 10.3183 48.3795C10.1718 49.3155 10.4488 50.2495 11.0988 51.0095C11.7968 51.826 12.8333 52.333 13.9138 52.41C14.5653 52.823 16.5978 53.129 16.5978 53.129C17.1293 53.129 17.5608 52.6975 17.5608 52.164V50.238C17.5608 49.705 17.1298 49.2725 16.5978 49.2725C16.5978 49.2725 13.7103 49.704 13.7103 50.238V50.362C13.2873 50.2595 12.8928 50.031 12.6183 49.7095C12.4313 49.4905 12.2238 49.137 12.2943 48.689C12.9133 44.7415 16.3353 37.0085 19.0063 37.0085C21.6773 37.0085 25.0998 44.742 25.7188 48.69C25.7893 49.138 25.5818 49.492 25.3948 49.7105C25.3153 49.804 25.2208 49.885 25.1233 49.962C24.4243 49.5635 22.4858 49.2735 22.4858 49.2735C21.9543 49.2735 21.5233 49.705 21.5233 50.2385V52.165C21.5233 52.6975 21.9538 53.13 22.4858 53.13C22.4858 53.13 25.3728 52.699 25.3728 52.165V52.112C25.9643 51.869 26.4998 51.497 26.9143 51.0125C27.5643 50.252 27.8413 49.318 27.6948 48.3815C27.1603 44.9715 24.0813 36.423 20.0063 35.169V33.773C20.0063 33.047 20.0848 32.268 20.3063 31.528C22.1628 30.6635 23.8063 29.948 24.9533 29.4745C25.3278 29.32 25.5718 28.955 25.5718 28.55V25.836C25.5718 25.5325 25.4343 25.2475 25.2008 25.0585C25.1373 24.98 24.6758 24.3325 24.9018 22.3145C24.9488 21.894 24.7483 21.4815 24.3678 21.296C23.9868 21.111 23.5533 21.178 23.2518 21.474C23.2438 21.4715 22.4648 21.1345 21.8248 17.76C21.7303 16.7535 21.9288 15.4615 22.3038 15.3595C22.4753 15.313 22.6223 15.222 22.7413 15.105C23.2848 15.5925 23.9103 15.75 23.9103 15.75C24.8448 14.994 24.6133 12.757 24.6133 12.757C24.2193 9.6955 24.9758 8.8185 24.9758 8.8185C28.8813 3.375 36.5063 2.875 40.0063 10.2245C40.7188 11.721 39.3188 15.381 39.9073 16.853C40.2718 17.7655 41.2468 16.896 41.9353 16.103C42.0503 16.204 42.1873 16.284 42.3418 16.326C42.3573 16.3305 42.7268 16.434 42.8898 16.793C43.1028 17.26 42.9583 18.057 42.4828 19.038C42.2678 19.4815 42.0188 20.074 41.7558 20.7015C41.5348 21.229 41.3033 21.779 41.0813 22.265C40.9668 22.365 40.6633 22.506 40.4248 22.519C40.1333 22.3085 39.7468 22.2695 39.4173 22.4245C39.0483 22.5965 38.8208 22.9755 38.8418 23.382C38.8423 23.3945 38.8858 24.6885 38.1178 25.7515C38.0183 25.889 37.9558 26.0495 37.9353 26.2175L37.6033 28.9735C37.5528 29.3885 37.7663 29.7905 38.1383 29.982C38.7693 30.307 39.5863 30.7425 40.5143 31.2535C40.8338 32.125 41.0083 33.053 41.0083 34.009V47.125C39.0098 47.582 37.5133 49.372 37.5133 51.509C37.5133 53.9905 39.5298 56.009 42.0088 56.009C44.4878 56.009 46.5043 53.9905 46.5043 51.509C46.5043 49.3725 45.0073 47.582 43.0083 47.125V34.009C43.0083 33.5325 42.9638 33.0635 42.8983 32.6005C47.2658 35.126 52.6063 38.555 54.0618 40.7895C56.6138 44.705 57.7733 58.1175 58.0608 62.001L2.15375 62Z" fill="#221F1F"/>
</svg>
