<svg width="74" height="63" viewBox="0 0 74 63" fill="none" xmlns="http://www.w3.org/2000/svg">
<path d="M69.5705 26.1117L65.6418 21.1943L64.5196 19.7898L69.769 15.5959L71.4526 17.7032C71.9173 18.2848 72.7665 18.3797 73.3481 17.915C73.9297 17.4503 74.0246 16.6012 73.5599 16.0195L70.6136 12.3317L64.7209 4.95611L61.7745 1.2683C61.3098 0.686681 60.4607 0.591774 59.879 1.05646C59.2974 1.52114 59.2025 2.37031 59.6672 2.95193L61.3508 5.05925L56.1015 9.25318L54.9789 7.84812L51.0506 2.93121C50.5859 2.34959 49.7367 2.25469 49.1551 2.71937C48.5735 3.18405 48.4786 4.03322 48.9433 4.61484L51.4687 7.77583L14.3625 37.4216C13.3842 38.2032 13.2162 39.6286 13.9894 40.5964L15.3843 42.3423L8.69351 54.1578C8.54179 54.4249 8.49989 54.7268 8.54225 55.0175L0.338455 61.5718C0.0471175 61.8046 0.000191008 62.2288 0.232532 62.5196C0.464873 62.8104 0.888933 62.8583 1.18027 62.6255L9.38407 56.0711C9.65823 56.1766 9.96194 56.2024 10.2559 56.1134L23.257 52.1962L24.6514 53.9415C25.4251 54.9099 26.8524 55.0607 27.8307 54.2791L64.9369 24.6333L67.4624 27.7943C67.927 28.3759 68.7762 28.4708 69.3578 28.0062C69.9395 27.5415 70.0352 26.6934 69.5705 26.1117ZM62.836 17.6825L60.7315 15.0483L65.9808 10.8544L68.0853 13.4885L62.836 17.6825ZM55.6778 13.0441L57.7823 15.6783L53.5845 19.0321L51.48 16.3979L55.6778 13.0441ZM58.6241 16.7319L60.7287 19.3661L56.5309 22.7199L54.4264 20.0857L58.6241 16.7319ZM63.0344 7.16657L65.139 9.80072L59.8896 13.9946L57.7851 11.3605L63.0344 7.16657ZM53.9942 10.9368L49.7964 14.2906L48.9546 13.2369L53.1523 9.88315L53.9942 10.9368ZM12.6978 52.5614L17.1984 44.613L21.4437 49.9266L12.6978 52.5614ZM24.7956 49.8008L18.0611 41.3715L16.3775 39.2642L20.2713 36.1533L23.6386 40.3679C23.8709 40.6587 24.295 40.7066 24.5863 40.4738C24.8776 40.2411 24.9246 39.8169 24.6922 39.5261L21.325 35.3114L25.5254 31.9555L27.6299 34.5897C27.8623 34.8805 28.2863 34.9284 28.5776 34.6956C28.869 34.4629 28.9159 34.0387 28.6836 33.7479L26.579 31.1137L30.78 27.7574L34.1472 31.972C34.3796 32.2629 34.8042 32.3103 35.095 32.078C35.3858 31.8456 35.4332 31.421 35.2009 31.1302L31.8336 26.9156L36.0346 23.5593L38.1391 26.1934C38.3715 26.4842 38.796 26.5317 39.0869 26.2993C39.3777 26.067 39.4251 25.6424 39.1928 25.3516L37.0882 22.7175L41.2887 19.3616L44.6559 23.5762C44.8883 23.867 45.3128 23.9145 45.6037 23.6821C45.8945 23.4498 45.9419 23.0252 45.7096 22.7344L42.3423 18.5197L46.8478 14.9201L48.9523 17.5543L54.845 24.9299L56.9495 27.5641L26.4809 51.9068L24.7972 49.7995L24.7956 49.8008ZM59.0563 25.8809L58.2145 24.8272L62.4123 21.4734L63.2541 22.5271L59.0563 25.8809Z" fill="#221F1F"/>
</svg>
