<svg width="56" height="66" viewBox="0 0 56 66" fill="none" xmlns="http://www.w3.org/2000/svg">
<path d="M49.7792 24.7861C46.7017 24.7861 44.148 27.0208 43.6517 29.9423H43.5734C38.999 29.9423 35.2775 33.6435 35.2775 38.1923V40.2188V48.3759V55.6875C35.2775 60.2363 31.5596 63.9375 26.9914 63.9375C22.4226 63.9375 18.7058 60.2363 18.7058 55.6875V36.0025C27.4617 34.5273 34.2544 14.8314 35.2671 8.40933C35.5316 6.73045 35.0255 5.04745 33.8422 3.67177C32.4188 2.01867 30.2446 1.03125 28.0264 1.03125H25.1122C25.1122 0.462 22.0047 0 22.0047 0C21.4322 0 20.9686 0.462 20.9686 1.03125V3.09375C20.9686 3.663 21.4327 4.125 22.0047 4.125C22.0047 4.125 25.1122 3.663 25.1122 3.09375H28.0264C29.6224 3.09375 31.2464 3.82903 32.2653 5.01291C32.8191 5.65744 33.4341 6.71395 33.2174 8.09067C32.003 15.7905 24.6798 34.0312 17.6677 34.0312C10.6546 34.0312 3.33188 15.7905 2.118 8.09016C1.90126 6.71395 2.51572 5.65744 3.06951 5.01342C4.0879 3.82903 5.71245 3.09375 7.30849 3.09375H10.6095C10.6095 3.663 13.717 4.125 13.717 4.125C14.2889 4.125 14.753 3.663 14.753 3.09375V1.03125C14.753 0.462 14.2889 0 13.717 0C13.717 0 10.6095 0.462 10.6095 1.03125H7.30849C5.0897 1.03125 2.9155 2.01867 1.49318 3.6728C0.309891 5.04848 -0.196194 6.73097 0.0687751 8.40984C1.08095 14.832 7.87369 34.5273 16.6306 36.003V55.6875C16.6306 61.3733 21.2782 66 26.9903 66C32.703 66 37.3506 61.3733 37.3506 55.6875V48.3759V40.2188V38.1923C37.3506 34.7805 40.1418 32.0048 43.5724 32.0048H43.6502C44.1464 34.9269 46.7017 37.1611 49.7782 37.1611C53.2088 37.1611 56 34.3855 56 30.9736C56.001 27.5622 53.2098 24.7861 49.7792 24.7861ZM49.7792 36.1298C47.2752 36.1298 45.1809 34.3556 44.6986 32.0048H47.9934C48.3522 32.6184 49.0144 33.0361 49.7792 33.0361C50.9246 33.0361 51.8533 32.1126 51.8533 30.9736C51.8533 29.8346 50.9246 28.9111 49.7792 28.9111C49.0128 28.9111 48.3522 29.3287 47.9934 29.9423H44.6986C45.1809 27.5916 47.2752 25.8173 49.7792 25.8173C52.6389 25.8173 54.964 28.1304 54.964 30.9736C54.964 33.8167 52.6389 36.1298 49.7792 36.1298Z" fill="#221F1F"/>
</svg>
