<svg width="64" height="64" viewBox="0 0 64 64" fill="none" xmlns="http://www.w3.org/2000/svg">
<path d="M46.301 1H46.107C43.901 1 41.722 1.579 39.806 2.673L38.977 3.147C34.734 5.571 29.266 5.571 25.023 3.147L24.193 2.673C22.278 1.579 20.099 1 17.893 1H17.699C10.697 1 5 6.697 5 13.699C5 15.356 5.318 16.974 5.946 18.508L9.048 26.091C12.35 34.163 14.573 42.643 15.654 51.297L16.725 59.867C16.949 61.653 18.475 63 20.274 63C21.729 63 23.027 62.13 23.581 60.785L28.782 48.155C29.321 46.846 30.584 46 32 46C33.416 46 34.679 46.846 35.217 48.155L40.418 60.785C40.972 62.13 42.271 63 43.726 63C45.526 63 47.052 61.653 47.275 59.867L48.346 51.297C49.428 42.644 51.65 34.163 54.952 26.091L58.055 18.508C58.682 16.974 59 15.356 59 13.699C59 6.697 53.303 1 46.301 1ZM56.204 17.751L55.196 20.214L51 21.612V17.723L47.857 12.485L46.142 13.514L49 18.277V21.613L43.8 19.88L38.375 24.22L39.624 25.782L43 23.08V27.414L46.293 30.707L47.707 29.293L45 26.586V22.387L50 24.054L54.197 22.655L53.101 25.334C50.97 30.544 49.282 35.922 48.048 41.405L43.527 39.144L40 36.5V32H38V37.5L41.106 39.829L36.553 42.105L37.448 43.894L43 41.118L47.623 43.43C47.11 45.952 46.681 48.492 46.361 51.049L45.29 59.619C45.191 60.406 44.519 61 43.726 61C43.084 61 42.513 60.617 42.268 60.023L37.067 47.393C36.218 45.332 34.229 44 32 44C29.771 44 27.782 45.332 26.933 47.393L21.732 60.024C21.488 60.617 20.916 61 20.274 61C19.481 61 18.808 60.406 18.71 59.619L17.639 51.049C17.287 48.228 16.802 45.427 16.214 42.65L20.731 41.144L23.694 44.107L28.243 42.97L27.758 41.03L24.307 41.893L22.144 39.73L23.721 35H30V33H24.477L26.23 28.618L22.555 26.168L21.446 27.832L23.771 29.382L22.323 33H22.28L20.21 39.209L15.783 40.684C14.565 35.451 12.937 30.315 10.9 25.334L7.797 17.751C7.268 16.458 7 15.095 7 13.699C7 11.41 7.729 9.291 8.959 7.549L12 11.351V15.764L10.105 19.553L11.894 20.448L14 16.236V12.477L17.244 13.774L20.081 20.394L21.919 19.606L19.382 13.686L22.618 12.877L24.832 9.555L23.168 8.446L21.382 11.124L18.07 11.952L13.616 10.17L10.284 6.005C12.209 4.148 14.821 3 17.699 3H17.893C19.752 3 21.587 3.487 23.201 4.41L24.031 4.884C28.877 7.653 35.123 7.653 39.97 4.884L40.799 4.41C42.413 3.487 44.248 3 46.107 3H46.301C52.2 3 57 7.8 57 13.699C57 15.095 56.732 16.458 56.204 17.751Z" fill="black"/>
</svg>
