<svg width="74" height="70" viewBox="0 0 74 70" fill="none" xmlns="http://www.w3.org/2000/svg">
<g clip-path="url(#clip0_1_15)">
<path d="M0 35C0 44.2826 3.84935 53.185 10.7012 59.7487C17.5531 66.3125 26.8463 70 36.5363 70C46.2263 70 55.5195 66.3125 62.3714 59.7487C69.2233 53.185 73.0726 44.2826 73.0726 35C73.0726 25.7174 69.2233 16.815 62.3714 10.2513C55.5195 3.68749 46.2263 0 36.5363 0C26.8463 0 17.5531 3.68749 10.7012 10.2513C3.84935 16.815 0 25.7174 0 35Z" fill="#37B449"/>
<path d="M29.8122 28.945C29.1034 27.8747 28.928 26.439 29.3307 25.0187C29.783 23.38 31.5733 21 33.6127 21C34.2192 21 34.7453 21.231 35.1399 21.6713C36.1337 22.7773 35.9803 24.864 35.7976 26.005C35.7464 26.306 35.7099 26.6133 35.6661 26.9073C35.4176 28.749 35.1326 30.8273 33.2108 30.8273C33.0647 30.8273 32.9112 30.8203 32.7432 30.786C31.4563 30.555 30.4479 29.918 29.8122 28.945ZM47.1304 30.1987C46.8089 30.0153 46.4435 29.925 46.0489 29.925C44.2806 29.925 42.3003 31.7513 41.7742 32.5143C40.5831 34.223 39.107 36.3573 41.1312 38.2963C41.8838 39.018 42.8411 39.3813 43.9664 39.3813C44.4487 39.3813 44.9602 39.312 45.4863 39.1713C46.6774 38.864 47.1889 38.1143 47.9634 36.981L48.0957 36.7843C48.7307 35.868 48.8922 34.9307 48.9507 33.6273C49.0011 32.494 48.9061 31.199 47.1304 30.1987ZM40.1228 30.793C40.2251 30.8 40.3201 30.8 40.437 30.8063C43.0018 30.8063 44.3756 28.294 44.5656 25.956C44.6744 24.5833 44.1344 23.1 43.1545 22.0843C42.475 21.3843 41.6719 21 40.8966 21C38.7263 21 38.3829 23.268 38.076 25.27L37.9971 25.795C37.6682 27.888 37.821 29.176 38.4859 29.988C38.8732 30.4563 39.4359 30.737 40.1228 30.793ZM30.4706 37.5963C30.9383 37.156 32.3705 35.5033 31.384 32.6963C31.0479 31.745 29.3665 29.3573 27.3942 29.3573C27.2116 29.3573 27.0289 29.3776 26.8601 29.4203C24.7848 29.918 24.1133 33.2213 24.1133 34.3C24.1133 35.805 24.7563 37.0083 25.9182 37.695C26.2762 37.9057 27.2328 38.402 28.3588 38.402C29.1918 38.4013 29.9145 38.1213 30.4706 37.5963ZM42.6511 41.3763C41.4519 40.3893 39.6332 38.899 38.6028 37.4143C38.4932 37.2533 38.3909 37.0713 38.2821 36.8753C37.8729 36.1263 37.251 34.993 35.9364 34.993C35.8707 34.993 35.8049 35 35.7252 35C34.8849 35.0833 34.3581 35.6713 33.6346 36.4833C32.8308 37.387 31.7348 38.626 29.5579 40.019C27.2335 41.5023 26.73 43.162 27.8188 45.7653C28.483 47.355 29.791 48.195 31.6105 48.195C32.627 48.195 33.6061 47.9437 34.3149 47.7533C34.5853 47.6833 34.9134 47.6 34.9719 47.593C35.1772 47.6203 35.7764 47.831 36.3091 48.0193C37.5448 48.4526 39.0859 48.9993 40.1819 48.9993C41.9284 48.9993 43.5141 47.7113 44.1564 46.4443C44.6313 45.4993 45.4278 43.9243 43.6237 42.2016C43.4183 42.0063 43.0749 41.7263 42.6511 41.3763Z" fill="white"/>
<path opacity="0.1" d="M62.3711 10.2515L10.7007 59.7485C24.9688 73.4167 48.1029 73.4167 62.3711 59.7485C76.6399 46.081 76.6399 23.9197 62.3711 10.2515Z" fill="black"/>
<path opacity="0.1" d="M36.5361 0V70C56.7144 70 73.0724 54.3298 73.0724 35C73.0724 15.6702 56.7144 0 36.5361 0Z" fill="black"/>
</g>
<defs>
<clipPath id="clip0_1_15">
<rect width="73.0726" height="70" fill="white"/>
</clipPath>
</defs>
</svg>
